<svg width="291" height="48" viewBox="0 0 291 48" fill="none" xmlns="http://www.w3.org/2000/svg">
<path d="M14.04 47V1.944H25.496V47H14.04ZM0.152 11.48V1.624H39.384V11.48H0.152ZM44.5945 47V1.624H56.0505V47H44.5945ZM53.6825 47V37.336H78.2585V47H53.6825ZM53.6825 28.568V19.16H75.9545V28.568H53.6825ZM53.6825 11.288V1.624H77.8745V11.288H53.6825ZM97.8025 47.704C94.0052 47.704 90.6985 47.128 87.8825 45.976C85.1092 44.824 82.5705 43.0107 80.2665 40.536L87.4985 33.24C89.0772 34.904 90.7625 36.184 92.5545 37.08C94.3465 37.9333 96.3732 38.36 98.6345 38.36C100.555 38.36 102.027 38.04 103.051 37.4C104.117 36.7173 104.651 35.8 104.651 34.648C104.651 33.5813 104.267 32.7067 103.499 32.024C102.731 31.2987 101.707 30.68 100.427 30.168C99.1892 29.6133 97.8025 29.1013 96.2665 28.632C94.7732 28.12 93.2585 27.5227 91.7225 26.84C90.2292 26.1147 88.8425 25.24 87.5625 24.216C86.3252 23.192 85.3225 21.912 84.5545 20.376C83.7865 18.84 83.4025 16.9413 83.4025 14.68C83.4025 11.7787 84.0852 9.304 85.4505 7.256C86.8585 5.208 88.7998 3.62933 91.2745 2.52C93.7492 1.41066 96.6292 0.855999 99.9145 0.855999C103.2 0.855999 106.229 1.41066 109.003 2.52C111.776 3.62933 114.059 5.16533 115.851 7.128L108.555 14.36C107.189 12.9947 105.803 11.9707 104.395 11.288C102.987 10.6053 101.451 10.264 99.7865 10.264C98.2078 10.264 96.9705 10.5413 96.0745 11.096C95.1785 11.6507 94.7305 12.44 94.7305 13.464C94.7305 14.488 95.1145 15.32 95.8825 15.96C96.6505 16.6 97.6532 17.176 98.8905 17.688C100.171 18.1573 101.557 18.648 103.051 19.16C104.587 19.672 106.101 20.2693 107.595 20.952C109.088 21.6347 110.453 22.5093 111.691 23.576C112.971 24.6427 113.995 25.9867 114.763 27.608C115.531 29.2293 115.915 31.192 115.915 33.496C115.915 38.0187 114.315 41.5173 111.115 43.992C107.957 46.4667 103.52 47.704 97.8025 47.704ZM131.165 47V1.944H142.621V47H131.165ZM117.277 11.48V1.624H156.509V11.48H117.277ZM161.72 47V1.624H173.176V47H161.72ZM189.496 47V1.624H200.952V47H189.496ZM168.248 28.568V18.968H193.656V28.568H168.248ZM227.72 47.704C223.88 47.704 220.488 46.9147 217.544 45.336C214.643 43.7147 212.381 41.4747 210.76 38.616C209.139 35.7573 208.328 32.5147 208.328 28.888V1.624H219.72V29.72C219.72 31.3413 220.061 32.7493 220.744 33.944C221.469 35.096 222.429 35.992 223.624 36.632C224.861 37.2293 226.227 37.528 227.72 37.528C229.256 37.528 230.6 37.2293 231.752 36.632C232.904 35.992 233.821 35.096 234.504 33.944C235.187 32.792 235.528 31.4053 235.528 29.784V1.624H247.048V28.952C247.048 32.5787 246.237 35.8213 244.616 38.68C242.995 41.496 240.733 43.7147 237.832 45.336C234.973 46.9147 231.603 47.704 227.72 47.704ZM263.433 47V38.488H272.905C274.697 38.488 276.105 37.9973 277.129 37.016C278.195 35.992 278.729 34.6693 278.729 33.048C278.729 31.9813 278.494 31.0427 278.025 30.232C277.555 29.3787 276.873 28.7387 275.977 28.312C275.123 27.8427 274.099 27.608 272.905 27.608H263.433V19.352H272.201C273.694 19.352 274.91 18.9893 275.849 18.264C276.83 17.496 277.321 16.3227 277.321 14.744C277.321 13.1653 276.83 12.0133 275.849 11.288C274.91 10.52 273.694 10.136 272.201 10.136H263.433V1.624H274.953C277.769 1.624 280.201 2.15733 282.249 3.224C284.339 4.29066 285.939 5.72 287.049 7.512C288.158 9.304 288.713 11.3307 288.713 13.592C288.713 16.6213 287.667 19.1387 285.576 21.144C283.529 23.1067 280.542 24.3227 276.617 24.792V20.952C280.969 21.464 284.297 22.872 286.601 25.176C288.905 27.4373 290.057 30.296 290.057 33.752C290.057 36.312 289.417 38.5947 288.137 40.6C286.857 42.5627 285.043 44.12 282.697 45.272C280.393 46.424 277.662 47 274.505 47H263.433ZM254.345 47V1.624H265.609V47H254.345Z" fill="#0056D2"/>
</svg>
